<mxfile host="app.diagrams.net" modified="2024-06-22T23:40:42.321Z" agent="Mozilla/5.0 (Windows NT 10.0; Win64; x64) AppleWebKit/537.36 (KHTML, like Gecko) Chrome/126.0.0.0 Safari/537.36" etag="KwqJ3oOpW6dL5yYU08ED" version="24.6.1" type="device">
  <diagram name="Page-1" id="CaEfUG8QsgtGvWu8mydP">
    <mxGraphModel dx="1434" dy="788" grid="1" gridSize="10" guides="0" tooltips="1" connect="1" arrows="1" fold="1" page="1" pageScale="1" pageWidth="850" pageHeight="1100" background="#000000" math="0" shadow="0">
      <root>
        <mxCell id="0" />
        <mxCell id="1" style="locked=1;" parent="0" />
        <mxCell id="UQGTS-67XtDg3RFHlaop-1" value="" style="rounded=0;whiteSpace=wrap;html=1;fillColor=#0A0A0A;" parent="1" vertex="1">
          <mxGeometry x="150" y="10" width="480" height="1470" as="geometry" />
        </mxCell>
        <mxCell id="UQGTS-67XtDg3RFHlaop-2" value="" style="rounded=0;whiteSpace=wrap;html=1;fillColor=#000000;strokeColor=#FFFFFF;" parent="1" vertex="1">
          <mxGeometry x="160" y="20" width="460" height="60" as="geometry" />
        </mxCell>
        <mxCell id="UQGTS-67XtDg3RFHlaop-3" value="" style="rounded=0;whiteSpace=wrap;html=1;fillColor=#000000;fillStyle=solid;strokeColor=#FFFFFF;" parent="1" vertex="1">
          <mxGeometry x="160" y="20" width="120" height="60" as="geometry" />
        </mxCell>
        <mxCell id="UQGTS-67XtDg3RFHlaop-4" value="" style="shape=mxgraph.sysml.x;" parent="1" vertex="1">
          <mxGeometry x="400" y="360" width="40" height="40" as="geometry" />
        </mxCell>
        <mxCell id="UQGTS-67XtDg3RFHlaop-5" value="" style="shape=mxgraph.sysml.x;strokeColor=#FFFFFF;" parent="1" vertex="1">
          <mxGeometry x="160" y="20" width="120" height="60" as="geometry" />
        </mxCell>
        <mxCell id="qlyuqYt5fjRZqkS5I7Z3-71" style="edgeStyle=none;curved=1;rounded=0;orthogonalLoop=1;jettySize=auto;html=1;exitX=0.5;exitY=1;exitDx=0;exitDy=0;fontSize=12;startSize=8;endSize=8;" edge="1" parent="1" source="UQGTS-67XtDg3RFHlaop-1" target="UQGTS-67XtDg3RFHlaop-1">
          <mxGeometry relative="1" as="geometry" />
        </mxCell>
        <mxCell id="UQGTS-67XtDg3RFHlaop-8" value="Untitled Layer" style="locked=1;" parent="0" />
        <mxCell id="UQGTS-67XtDg3RFHlaop-9" value="Home" style="text;strokeColor=none;align=center;fillColor=none;html=1;verticalAlign=middle;whiteSpace=wrap;rounded=0;fontColor=#FFFFFF;" parent="UQGTS-67XtDg3RFHlaop-8" vertex="1">
          <mxGeometry x="330" y="40" width="60" height="20" as="geometry" />
        </mxCell>
        <mxCell id="UQGTS-67XtDg3RFHlaop-10" value="Menu" style="text;strokeColor=none;align=center;fillColor=none;html=1;verticalAlign=middle;whiteSpace=wrap;rounded=0;fontColor=#FFFFFF;" parent="UQGTS-67XtDg3RFHlaop-8" vertex="1">
          <mxGeometry x="430" y="40" width="60" height="20" as="geometry" />
        </mxCell>
        <mxCell id="UQGTS-67XtDg3RFHlaop-11" value="Our Story" style="text;strokeColor=none;align=center;fillColor=none;html=1;verticalAlign=middle;whiteSpace=wrap;rounded=0;fontColor=#FFFFFF;" parent="UQGTS-67XtDg3RFHlaop-8" vertex="1">
          <mxGeometry x="530" y="40" width="60" height="20" as="geometry" />
        </mxCell>
        <mxCell id="VmLfWfN4QhXrrW_cGodi-1" value="a" style="rounded=0;whiteSpace=wrap;html=1;fillColor=#000000;strokeColor=#FFFFFF;" parent="UQGTS-67XtDg3RFHlaop-8" vertex="1">
          <mxGeometry x="160" y="1430" width="460" height="40" as="geometry" />
        </mxCell>
        <mxCell id="VmLfWfN4QhXrrW_cGodi-2" value="" style="whiteSpace=wrap;html=1;aspect=fixed;strokeColor=#FFFFFF;fillColor=#000000;" parent="UQGTS-67XtDg3RFHlaop-8" vertex="1">
          <mxGeometry x="170" y="1440" width="20" height="20" as="geometry" />
        </mxCell>
        <mxCell id="VmLfWfN4QhXrrW_cGodi-3" value="" style="whiteSpace=wrap;html=1;aspect=fixed;strokeColor=#FFFFFF;fillColor=#000000;" parent="UQGTS-67XtDg3RFHlaop-8" vertex="1">
          <mxGeometry x="200" y="1440" width="20" height="20" as="geometry" />
        </mxCell>
        <mxCell id="VmLfWfN4QhXrrW_cGodi-4" value="" style="whiteSpace=wrap;html=1;aspect=fixed;strokeColor=#FFFFFF;fillColor=#000000;" parent="UQGTS-67XtDg3RFHlaop-8" vertex="1">
          <mxGeometry x="230" y="1440" width="20" height="20" as="geometry" />
        </mxCell>
        <mxCell id="VmLfWfN4QhXrrW_cGodi-5" value="" style="shape=mxgraph.sysml.x;strokeColor=#FFFFFF;" parent="UQGTS-67XtDg3RFHlaop-8" vertex="1">
          <mxGeometry x="200" y="1440" width="20" height="20" as="geometry" />
        </mxCell>
        <mxCell id="VmLfWfN4QhXrrW_cGodi-6" value="" style="shape=mxgraph.sysml.x;strokeColor=#FFFFFF;" parent="UQGTS-67XtDg3RFHlaop-8" vertex="1">
          <mxGeometry x="230" y="1440" width="20" height="20" as="geometry" />
        </mxCell>
        <mxCell id="VmLfWfN4QhXrrW_cGodi-7" value="" style="shape=mxgraph.sysml.x;strokeColor=#FFFFFF;" parent="UQGTS-67XtDg3RFHlaop-8" vertex="1">
          <mxGeometry x="170" y="1440" width="20" height="20" as="geometry" />
        </mxCell>
        <mxCell id="VmLfWfN4QhXrrW_cGodi-8" value="&lt;font color=&quot;#ffffff&quot;&gt;Amet et&lt;/font&gt;" style="text;strokeColor=none;align=center;fillColor=none;html=1;verticalAlign=middle;whiteSpace=wrap;rounded=0;" parent="UQGTS-67XtDg3RFHlaop-8" vertex="1">
          <mxGeometry x="280" y="1440" width="60" height="20" as="geometry" />
        </mxCell>
        <mxCell id="VmLfWfN4QhXrrW_cGodi-9" value="&lt;font color=&quot;#ffffff&quot;&gt;Dolor sit&lt;/font&gt;" style="text;strokeColor=none;align=center;fillColor=none;html=1;verticalAlign=middle;whiteSpace=wrap;rounded=0;" parent="UQGTS-67XtDg3RFHlaop-8" vertex="1">
          <mxGeometry x="370" y="1440" width="60" height="20" as="geometry" />
        </mxCell>
        <mxCell id="VmLfWfN4QhXrrW_cGodi-10" value="&lt;font color=&quot;#ffffff&quot;&gt;Lorem ipsum 2025&lt;/font&gt;" style="text;strokeColor=none;align=center;fillColor=none;html=1;verticalAlign=middle;whiteSpace=wrap;rounded=0;" parent="UQGTS-67XtDg3RFHlaop-8" vertex="1">
          <mxGeometry x="460" y="1440" width="110" height="20" as="geometry" />
        </mxCell>
        <mxCell id="qlyuqYt5fjRZqkS5I7Z3-24" value="Squares" style="locked=1;" parent="0" />
        <mxCell id="qlyuqYt5fjRZqkS5I7Z3-25" value="" style="rounded=0;whiteSpace=wrap;html=1;fillColor=#000000;strokeColor=#FFFFFF;" vertex="1" parent="qlyuqYt5fjRZqkS5I7Z3-24">
          <mxGeometry x="170" y="390" width="120" height="190" as="geometry" />
        </mxCell>
        <mxCell id="qlyuqYt5fjRZqkS5I7Z3-33" value="" style="rounded=0;whiteSpace=wrap;html=1;fillColor=#000000;strokeColor=#FFFFFF;" vertex="1" parent="qlyuqYt5fjRZqkS5I7Z3-24">
          <mxGeometry x="330" y="390" width="120" height="190" as="geometry" />
        </mxCell>
        <mxCell id="qlyuqYt5fjRZqkS5I7Z3-34" value="" style="rounded=0;whiteSpace=wrap;html=1;fillColor=#000000;strokeColor=#FFFFFF;" vertex="1" parent="qlyuqYt5fjRZqkS5I7Z3-24">
          <mxGeometry x="500" y="390" width="120" height="190" as="geometry" />
        </mxCell>
        <mxCell id="qlyuqYt5fjRZqkS5I7Z3-35" value="" style="rounded=0;whiteSpace=wrap;html=1;fillColor=#000000;strokeColor=#FFFFFF;" vertex="1" parent="qlyuqYt5fjRZqkS5I7Z3-24">
          <mxGeometry x="170" y="590" width="120" height="190" as="geometry" />
        </mxCell>
        <mxCell id="qlyuqYt5fjRZqkS5I7Z3-36" value="" style="rounded=0;whiteSpace=wrap;html=1;fillColor=#000000;strokeColor=#FFFFFF;" vertex="1" parent="qlyuqYt5fjRZqkS5I7Z3-24">
          <mxGeometry x="330" y="590" width="120" height="190" as="geometry" />
        </mxCell>
        <mxCell id="qlyuqYt5fjRZqkS5I7Z3-37" value="" style="rounded=0;whiteSpace=wrap;html=1;fillColor=#000000;strokeColor=#FFFFFF;" vertex="1" parent="qlyuqYt5fjRZqkS5I7Z3-24">
          <mxGeometry x="500" y="590" width="120" height="190" as="geometry" />
        </mxCell>
        <object label="Content" id="qlyuqYt5fjRZqkS5I7Z3-1">
          <mxCell style="locked=1;" parent="0" />
        </object>
        <mxCell id="qlyuqYt5fjRZqkS5I7Z3-2" value="&lt;font style=&quot;font-size: 20px;&quot; color=&quot;#ffffff&quot;&gt;&lt;b&gt;Title&lt;/b&gt;&lt;/font&gt;" style="text;strokeColor=none;align=center;fillColor=none;html=1;verticalAlign=middle;whiteSpace=wrap;rounded=0;fontSize=16;" vertex="1" parent="qlyuqYt5fjRZqkS5I7Z3-1">
          <mxGeometry x="360" y="90" width="60" height="30" as="geometry" />
        </mxCell>
        <mxCell id="qlyuqYt5fjRZqkS5I7Z3-3" value="&lt;div style=&quot;&quot;&gt;&lt;span style=&quot;color: rgb(255, 255, 255); background-color: initial;&quot;&gt;Lorem ipsum dolor sit amet, consectetur adipiscing elit, sed do eiusmod&amp;nbsp;&lt;/span&gt;&lt;span style=&quot;background-color: initial; color: rgb(255, 255, 255);&quot;&gt;tempor incididunt ut labore et dolore magna aliqua. Ut enim ad minim&amp;nbsp;&lt;/span&gt;&lt;span style=&quot;background-color: initial; color: rgb(255, 255, 255);&quot;&gt;veniam, quis nostrud exercitation ullamco laboris nisi ut aliquip ex ea&amp;nbsp;&lt;/span&gt;&lt;span style=&quot;background-color: initial; color: rgb(255, 255, 255);&quot;&gt;commodo consequat. Duis aute irure.&lt;/span&gt;&lt;/div&gt;" style="text;strokeColor=none;align=left;fillColor=none;html=1;verticalAlign=middle;whiteSpace=wrap;rounded=0;" vertex="1" parent="qlyuqYt5fjRZqkS5I7Z3-1">
          <mxGeometry x="160" y="120" width="470" height="50" as="geometry" />
        </mxCell>
        <mxCell id="qlyuqYt5fjRZqkS5I7Z3-5" style="edgeStyle=none;curved=1;rounded=0;orthogonalLoop=1;jettySize=auto;html=1;exitX=0.5;exitY=1;exitDx=0;exitDy=0;fontSize=12;startSize=8;endSize=8;" edge="1" parent="qlyuqYt5fjRZqkS5I7Z3-1" source="qlyuqYt5fjRZqkS5I7Z3-4">
          <mxGeometry relative="1" as="geometry">
            <mxPoint x="390" y="370" as="targetPoint" />
          </mxGeometry>
        </mxCell>
        <mxCell id="qlyuqYt5fjRZqkS5I7Z3-4" value="" style="rounded=0;whiteSpace=wrap;html=1;fillColor=#000000;strokeColor=#FFFFFF;" vertex="1" parent="qlyuqYt5fjRZqkS5I7Z3-1">
          <mxGeometry x="160" y="180" width="460" height="190" as="geometry" />
        </mxCell>
        <mxCell id="qlyuqYt5fjRZqkS5I7Z3-6" value="" style="shape=stencil(fZbdcgIhDIWfZm8zQAg/17Z9j85U606tdqz9e/tmZ0c0uJ47xP0I5JwEBl59bp8/1kNwn6fj4W39M76ctgM/DCGM++36OJ50NPDjwKvN4bh+PR6+9i/z74/n6ctp9H74nlb4nbmSKZeJCu5vngmZ6jzzNAO7cX8FVKEsBuBKrgKg9oAE8gkCbLeUhEoEQKSUDZDLeWYRKIl8MEDRmHwfyBrBG6Amyu4+kDxxMoB3jhwgYu7TVAsVkFcWCs4CTBEoF4RctKeOxHIf8IXYpikHikAIf+MNUW94AGSSaoAoFIE3AlOyeWU+p2E5S9yfQZcQILVuQOwZdJNoS9Ls3wA5u2XZTIHECqeJ9kDpSaauRiNVcAY1QhdBzeLBli5WazpkSsBLV25uRaqWRyFawTQzRRIQYirJzq5atkBqLfouwqUxLBepthWb10vrWZY6UOAeyKCCtDV625mm9gmUC4Wc3VLJMMIE1BsA2FW9JraVlQB7n3c9oMKhCLEvIM1zBPZ25/umNQ1tVEC2G+fFCC8g398O2hNQuQlVu752DBfA+q0ptnqO5JFmeuIuo9DY7KjY71UxdJV4EntifPWorW++R/dC4t7V3DlIB5cHx2bc7eb3yvX//QNFp+bHDT/+Aw==);lineShape=1;strokeColor=default;" vertex="1" parent="qlyuqYt5fjRZqkS5I7Z3-1">
          <mxGeometry x="938.2233007020632" y="351.22942704876596" width="3.8937831434293457" height="3.8876968469647486" as="geometry" />
        </mxCell>
        <mxCell id="qlyuqYt5fjRZqkS5I7Z3-7" value="" style="shape=mxgraph.sysml.x;strokeColor=#FFFFFF;" vertex="1" parent="qlyuqYt5fjRZqkS5I7Z3-1">
          <mxGeometry x="160" y="180" width="460" height="190" as="geometry" />
        </mxCell>
        <mxCell id="qlyuqYt5fjRZqkS5I7Z3-8" value="&lt;font style=&quot;font-size: 18px;&quot; color=&quot;#ffffff&quot;&gt;Entrees&lt;/font&gt;" style="text;strokeColor=none;align=center;fillColor=none;html=1;verticalAlign=middle;whiteSpace=wrap;rounded=0;fontSize=16;" vertex="1" parent="qlyuqYt5fjRZqkS5I7Z3-1">
          <mxGeometry x="360" y="190" width="60" height="20" as="geometry" />
        </mxCell>
        <mxCell id="qlyuqYt5fjRZqkS5I7Z3-9" value="&lt;font style=&quot;font-size: 15px;&quot; color=&quot;#ffffff&quot;&gt;Item&lt;/font&gt;" style="text;strokeColor=none;align=center;fillColor=none;html=1;verticalAlign=middle;whiteSpace=wrap;rounded=0;fontSize=16;" vertex="1" parent="qlyuqYt5fjRZqkS5I7Z3-1">
          <mxGeometry x="200" y="390" width="60" height="20" as="geometry" />
        </mxCell>
        <mxCell id="qlyuqYt5fjRZqkS5I7Z3-10" value="&lt;div style=&quot;font-size: 9.5px;&quot;&gt;&lt;span style=&quot;text-align: left; background-color: initial;&quot;&gt;Lorem ipsum dolor sit amet, consectetur adipiscing elit, sed do eiusmod&amp;nbsp;&lt;/span&gt;&lt;span style=&quot;text-align: left; background-color: initial;&quot;&gt;tempor incididunt ut labore et dolore magna aliqua. Ut enim ad minim&amp;nbsp;&lt;/span&gt;&lt;span style=&quot;text-align: left; background-color: initial;&quot;&gt;veniam, quis nostrud exercitation ullamco laboris nisi ut aliquip ex ea&amp;nbsp;&lt;/span&gt;&lt;span style=&quot;text-align: left; background-color: initial;&quot;&gt;commodo consequat. Duis aute irure.&lt;/span&gt;&lt;br&gt;&lt;/div&gt;" style="text;strokeColor=none;align=center;fillColor=none;verticalAlign=middle;rounded=0;fontSize=10;whiteSpace=wrap;html=1;fontColor=#FFFFFF;" vertex="1" parent="qlyuqYt5fjRZqkS5I7Z3-1">
          <mxGeometry x="180" y="390" width="100" height="190" as="geometry" />
        </mxCell>
        <mxCell id="qlyuqYt5fjRZqkS5I7Z3-11" style="edgeStyle=none;curved=1;rounded=0;orthogonalLoop=1;jettySize=auto;html=1;exitX=0.5;exitY=1;exitDx=0;exitDy=0;fontSize=12;startSize=8;endSize=8;" edge="1" parent="qlyuqYt5fjRZqkS5I7Z3-1" source="qlyuqYt5fjRZqkS5I7Z3-10" target="qlyuqYt5fjRZqkS5I7Z3-10">
          <mxGeometry relative="1" as="geometry" />
        </mxCell>
        <mxCell id="qlyuqYt5fjRZqkS5I7Z3-15" value="&lt;font style=&quot;font-size: 15px;&quot; color=&quot;#ffffff&quot;&gt;Item&lt;/font&gt;" style="text;strokeColor=none;align=center;fillColor=none;html=1;verticalAlign=middle;whiteSpace=wrap;rounded=0;fontSize=16;" vertex="1" parent="qlyuqYt5fjRZqkS5I7Z3-1">
          <mxGeometry x="360" y="390" width="60" height="20" as="geometry" />
        </mxCell>
        <mxCell id="qlyuqYt5fjRZqkS5I7Z3-16" value="&lt;font style=&quot;font-size: 15px;&quot; color=&quot;#ffffff&quot;&gt;Item&lt;/font&gt;" style="text;strokeColor=none;align=center;fillColor=none;html=1;verticalAlign=middle;whiteSpace=wrap;rounded=0;fontSize=16;" vertex="1" parent="qlyuqYt5fjRZqkS5I7Z3-1">
          <mxGeometry x="530" y="390" width="60" height="20" as="geometry" />
        </mxCell>
        <mxCell id="qlyuqYt5fjRZqkS5I7Z3-17" value="&lt;font style=&quot;font-size: 15px;&quot; color=&quot;#ffffff&quot;&gt;Item&lt;/font&gt;" style="text;strokeColor=none;align=center;fillColor=none;html=1;verticalAlign=middle;whiteSpace=wrap;rounded=0;fontSize=16;" vertex="1" parent="qlyuqYt5fjRZqkS5I7Z3-1">
          <mxGeometry x="200" y="590" width="60" height="20" as="geometry" />
        </mxCell>
        <mxCell id="qlyuqYt5fjRZqkS5I7Z3-19" style="edgeStyle=none;curved=1;rounded=0;orthogonalLoop=1;jettySize=auto;html=1;exitX=0.5;exitY=1;exitDx=0;exitDy=0;fontSize=12;startSize=8;endSize=8;" edge="1" parent="qlyuqYt5fjRZqkS5I7Z3-1">
          <mxGeometry relative="1" as="geometry">
            <mxPoint x="220" y="790" as="sourcePoint" />
            <mxPoint x="220" y="790" as="targetPoint" />
          </mxGeometry>
        </mxCell>
        <mxCell id="qlyuqYt5fjRZqkS5I7Z3-22" value="&lt;font style=&quot;font-size: 15px;&quot; color=&quot;#ffffff&quot;&gt;Item&lt;/font&gt;" style="text;strokeColor=none;align=center;fillColor=none;html=1;verticalAlign=middle;whiteSpace=wrap;rounded=0;fontSize=16;" vertex="1" parent="qlyuqYt5fjRZqkS5I7Z3-1">
          <mxGeometry x="360" y="590" width="60" height="20" as="geometry" />
        </mxCell>
        <mxCell id="qlyuqYt5fjRZqkS5I7Z3-23" value="&lt;font style=&quot;font-size: 15px;&quot; color=&quot;#ffffff&quot;&gt;Item&lt;/font&gt;" style="text;strokeColor=none;align=center;fillColor=none;html=1;verticalAlign=middle;whiteSpace=wrap;rounded=0;fontSize=16;" vertex="1" parent="qlyuqYt5fjRZqkS5I7Z3-1">
          <mxGeometry x="530" y="590" width="60" height="20" as="geometry" />
        </mxCell>
        <mxCell id="qlyuqYt5fjRZqkS5I7Z3-38" value="&lt;div style=&quot;font-size: 9.5px;&quot;&gt;&lt;span style=&quot;text-align: left; background-color: initial;&quot;&gt;Lorem ipsum dolor sit amet, consectetur adipiscing elit, sed do eiusmod&amp;nbsp;&lt;/span&gt;&lt;span style=&quot;text-align: left; background-color: initial;&quot;&gt;tempor incididunt ut labore et dolore magna aliqua. Ut enim ad minim&amp;nbsp;&lt;/span&gt;&lt;span style=&quot;text-align: left; background-color: initial;&quot;&gt;veniam, quis nostrud exercitation ullamco laboris nisi ut aliquip ex ea&amp;nbsp;&lt;/span&gt;&lt;span style=&quot;text-align: left; background-color: initial;&quot;&gt;commodo consequat. Duis aute irure.&lt;/span&gt;&lt;br&gt;&lt;/div&gt;" style="text;strokeColor=none;align=center;fillColor=none;verticalAlign=middle;rounded=0;fontSize=10;whiteSpace=wrap;html=1;fontColor=#FFFFFF;" vertex="1" parent="qlyuqYt5fjRZqkS5I7Z3-1">
          <mxGeometry x="340" y="390" width="100" height="190" as="geometry" />
        </mxCell>
        <mxCell id="qlyuqYt5fjRZqkS5I7Z3-39" value="&lt;div style=&quot;font-size: 9.5px;&quot;&gt;&lt;span style=&quot;text-align: left; background-color: initial;&quot;&gt;Lorem ipsum dolor sit amet, consectetur adipiscing elit, sed do eiusmod&amp;nbsp;&lt;/span&gt;&lt;span style=&quot;text-align: left; background-color: initial;&quot;&gt;tempor incididunt ut labore et dolore magna aliqua. Ut enim ad minim&amp;nbsp;&lt;/span&gt;&lt;span style=&quot;text-align: left; background-color: initial;&quot;&gt;veniam, quis nostrud exercitation ullamco laboris nisi ut aliquip ex ea&amp;nbsp;&lt;/span&gt;&lt;span style=&quot;text-align: left; background-color: initial;&quot;&gt;commodo consequat. Duis aute irure.&lt;/span&gt;&lt;br&gt;&lt;/div&gt;" style="text;strokeColor=none;align=center;fillColor=none;verticalAlign=middle;rounded=0;fontSize=10;whiteSpace=wrap;html=1;fontColor=#FFFFFF;" vertex="1" parent="qlyuqYt5fjRZqkS5I7Z3-1">
          <mxGeometry x="510" y="390" width="100" height="190" as="geometry" />
        </mxCell>
        <mxCell id="qlyuqYt5fjRZqkS5I7Z3-40" value="&lt;div style=&quot;font-size: 9.5px;&quot;&gt;&lt;span style=&quot;text-align: left; background-color: initial;&quot;&gt;Lorem ipsum dolor sit amet, consectetur adipiscing elit, sed do eiusmod&amp;nbsp;&lt;/span&gt;&lt;span style=&quot;text-align: left; background-color: initial;&quot;&gt;tempor incididunt ut labore et dolore magna aliqua. Ut enim ad minim&amp;nbsp;&lt;/span&gt;&lt;span style=&quot;text-align: left; background-color: initial;&quot;&gt;veniam, quis nostrud exercitation ullamco laboris nisi ut aliquip ex ea&amp;nbsp;&lt;/span&gt;&lt;span style=&quot;text-align: left; background-color: initial;&quot;&gt;commodo consequat. Duis aute irure.&lt;/span&gt;&lt;br&gt;&lt;/div&gt;" style="text;strokeColor=none;align=center;fillColor=none;verticalAlign=middle;rounded=0;fontSize=10;whiteSpace=wrap;html=1;fontColor=#FFFFFF;" vertex="1" parent="qlyuqYt5fjRZqkS5I7Z3-1">
          <mxGeometry x="180" y="590" width="100" height="190" as="geometry" />
        </mxCell>
        <mxCell id="qlyuqYt5fjRZqkS5I7Z3-41" value="&lt;div style=&quot;font-size: 9.5px;&quot;&gt;&lt;span style=&quot;text-align: left; background-color: initial;&quot;&gt;Lorem ipsum dolor sit amet, consectetur adipiscing elit, sed do eiusmod&amp;nbsp;&lt;/span&gt;&lt;span style=&quot;text-align: left; background-color: initial;&quot;&gt;tempor incididunt ut labore et dolore magna aliqua. Ut enim ad minim&amp;nbsp;&lt;/span&gt;&lt;span style=&quot;text-align: left; background-color: initial;&quot;&gt;veniam, quis nostrud exercitation ullamco laboris nisi ut aliquip ex ea&amp;nbsp;&lt;/span&gt;&lt;span style=&quot;text-align: left; background-color: initial;&quot;&gt;commodo consequat. Duis aute irure.&lt;/span&gt;&lt;br&gt;&lt;/div&gt;" style="text;strokeColor=none;align=center;fillColor=none;verticalAlign=middle;rounded=0;fontSize=10;whiteSpace=wrap;html=1;fontColor=#FFFFFF;" vertex="1" parent="qlyuqYt5fjRZqkS5I7Z3-1">
          <mxGeometry x="340" y="590" width="100" height="190" as="geometry" />
        </mxCell>
        <mxCell id="qlyuqYt5fjRZqkS5I7Z3-42" value="&lt;div style=&quot;font-size: 9.5px;&quot;&gt;&lt;span style=&quot;text-align: left; background-color: initial;&quot;&gt;Lorem ipsum dolor sit amet, consectetur adipiscing elit, sed do eiusmod&amp;nbsp;&lt;/span&gt;&lt;span style=&quot;text-align: left; background-color: initial;&quot;&gt;tempor incididunt ut labore et dolore magna aliqua. Ut enim ad minim&amp;nbsp;&lt;/span&gt;&lt;span style=&quot;text-align: left; background-color: initial;&quot;&gt;veniam, quis nostrud exercitation ullamco laboris nisi ut aliquip ex ea&amp;nbsp;&lt;/span&gt;&lt;span style=&quot;text-align: left; background-color: initial;&quot;&gt;commodo consequat. Duis aute irure.&lt;/span&gt;&lt;br&gt;&lt;/div&gt;" style="text;strokeColor=none;align=center;fillColor=none;verticalAlign=middle;rounded=0;fontSize=10;whiteSpace=wrap;html=1;fontColor=#FFFFFF;" vertex="1" parent="qlyuqYt5fjRZqkS5I7Z3-1">
          <mxGeometry x="510" y="590" width="100" height="190" as="geometry" />
        </mxCell>
        <mxCell id="qlyuqYt5fjRZqkS5I7Z3-50" style="edgeStyle=none;curved=1;rounded=0;orthogonalLoop=1;jettySize=auto;html=1;exitX=0.5;exitY=1;exitDx=0;exitDy=0;fontSize=12;startSize=8;endSize=8;" edge="1" parent="qlyuqYt5fjRZqkS5I7Z3-1" source="qlyuqYt5fjRZqkS5I7Z3-44">
          <mxGeometry relative="1" as="geometry">
            <mxPoint x="235.28571428571422" y="980.2857142857142" as="targetPoint" />
          </mxGeometry>
        </mxCell>
        <mxCell id="qlyuqYt5fjRZqkS5I7Z3-44" value="" style="rounded=0;whiteSpace=wrap;html=1;fillColor=#000000;strokeColor=#FFFFFF;" vertex="1" parent="qlyuqYt5fjRZqkS5I7Z3-1">
          <mxGeometry x="160" y="810" width="150" height="190" as="geometry" />
        </mxCell>
        <mxCell id="qlyuqYt5fjRZqkS5I7Z3-45" value="" style="shape=mxgraph.sysml.x;strokeColor=#FFFFFF;" vertex="1" parent="qlyuqYt5fjRZqkS5I7Z3-1">
          <mxGeometry x="160" y="810" width="150" height="190" as="geometry" />
        </mxCell>
        <mxCell id="qlyuqYt5fjRZqkS5I7Z3-46" value="&lt;font style=&quot;font-size: 18px;&quot; color=&quot;#ffffff&quot;&gt;Soups&lt;/font&gt;" style="text;strokeColor=none;align=center;fillColor=none;html=1;verticalAlign=middle;whiteSpace=wrap;rounded=0;fontSize=16;" vertex="1" parent="qlyuqYt5fjRZqkS5I7Z3-1">
          <mxGeometry x="200" y="820" width="70" height="20" as="geometry" />
        </mxCell>
        <mxCell id="qlyuqYt5fjRZqkS5I7Z3-47" value="" style="rounded=0;whiteSpace=wrap;html=1;fillColor=#000000;strokeColor=#FFFFFF;" vertex="1" parent="qlyuqYt5fjRZqkS5I7Z3-1">
          <mxGeometry x="330" y="810" width="120" height="190" as="geometry" />
        </mxCell>
        <mxCell id="qlyuqYt5fjRZqkS5I7Z3-48" value="&lt;font style=&quot;font-size: 15px;&quot; color=&quot;#ffffff&quot;&gt;Item&lt;/font&gt;" style="text;strokeColor=none;align=center;fillColor=none;html=1;verticalAlign=middle;whiteSpace=wrap;rounded=0;fontSize=16;" vertex="1" parent="qlyuqYt5fjRZqkS5I7Z3-1">
          <mxGeometry x="360" y="810" width="60" height="20" as="geometry" />
        </mxCell>
        <mxCell id="qlyuqYt5fjRZqkS5I7Z3-49" value="&lt;div style=&quot;font-size: 9.5px;&quot;&gt;&lt;span style=&quot;text-align: left; background-color: initial;&quot;&gt;Lorem ipsum dolor sit amet, consectetur adipiscing elit, sed do eiusmod&amp;nbsp;&lt;/span&gt;&lt;span style=&quot;text-align: left; background-color: initial;&quot;&gt;tempor incididunt ut labore et dolore magna aliqua. Ut enim ad minim&amp;nbsp;&lt;/span&gt;&lt;span style=&quot;text-align: left; background-color: initial;&quot;&gt;veniam, quis nostrud exercitation ullamco laboris nisi ut aliquip ex ea&amp;nbsp;&lt;/span&gt;&lt;span style=&quot;text-align: left; background-color: initial;&quot;&gt;commodo consequat. Duis aute irure.&lt;/span&gt;&lt;br&gt;&lt;/div&gt;" style="text;strokeColor=none;align=center;fillColor=none;verticalAlign=middle;rounded=0;fontSize=10;whiteSpace=wrap;html=1;fontColor=#FFFFFF;" vertex="1" parent="qlyuqYt5fjRZqkS5I7Z3-1">
          <mxGeometry x="340" y="810" width="100" height="190" as="geometry" />
        </mxCell>
        <mxCell id="qlyuqYt5fjRZqkS5I7Z3-51" value="" style="rounded=0;whiteSpace=wrap;html=1;fillColor=#000000;strokeColor=#FFFFFF;" vertex="1" parent="qlyuqYt5fjRZqkS5I7Z3-1">
          <mxGeometry x="500" y="810" width="120" height="190" as="geometry" />
        </mxCell>
        <mxCell id="qlyuqYt5fjRZqkS5I7Z3-52" value="&lt;font style=&quot;font-size: 15px;&quot; color=&quot;#ffffff&quot;&gt;Item&lt;/font&gt;" style="text;strokeColor=none;align=center;fillColor=none;html=1;verticalAlign=middle;whiteSpace=wrap;rounded=0;fontSize=16;" vertex="1" parent="qlyuqYt5fjRZqkS5I7Z3-1">
          <mxGeometry x="530" y="810" width="60" height="20" as="geometry" />
        </mxCell>
        <mxCell id="qlyuqYt5fjRZqkS5I7Z3-53" value="&lt;div style=&quot;font-size: 9.5px;&quot;&gt;&lt;span style=&quot;text-align: left; background-color: initial;&quot;&gt;Lorem ipsum dolor sit amet, consectetur adipiscing elit, sed do eiusmod&amp;nbsp;&lt;/span&gt;&lt;span style=&quot;text-align: left; background-color: initial;&quot;&gt;tempor incididunt ut labore et dolore magna aliqua. Ut enim ad minim&amp;nbsp;&lt;/span&gt;&lt;span style=&quot;text-align: left; background-color: initial;&quot;&gt;veniam, quis nostrud exercitation ullamco laboris nisi ut aliquip ex ea&amp;nbsp;&lt;/span&gt;&lt;span style=&quot;text-align: left; background-color: initial;&quot;&gt;commodo consequat. Duis aute irure.&lt;/span&gt;&lt;br&gt;&lt;/div&gt;" style="text;strokeColor=none;align=center;fillColor=none;verticalAlign=middle;rounded=0;fontSize=10;whiteSpace=wrap;html=1;fontColor=#FFFFFF;" vertex="1" parent="qlyuqYt5fjRZqkS5I7Z3-1">
          <mxGeometry x="510" y="810" width="100" height="190" as="geometry" />
        </mxCell>
        <mxCell id="qlyuqYt5fjRZqkS5I7Z3-54" value="" style="rounded=0;whiteSpace=wrap;html=1;fillColor=#000000;strokeColor=#FFFFFF;" vertex="1" parent="qlyuqYt5fjRZqkS5I7Z3-1">
          <mxGeometry x="170" y="1010" width="120" height="190" as="geometry" />
        </mxCell>
        <mxCell id="qlyuqYt5fjRZqkS5I7Z3-55" value="&lt;font style=&quot;font-size: 15px;&quot; color=&quot;#ffffff&quot;&gt;Item&lt;/font&gt;" style="text;strokeColor=none;align=center;fillColor=none;html=1;verticalAlign=middle;whiteSpace=wrap;rounded=0;fontSize=16;" vertex="1" parent="qlyuqYt5fjRZqkS5I7Z3-1">
          <mxGeometry x="200" y="1010" width="60" height="20" as="geometry" />
        </mxCell>
        <mxCell id="qlyuqYt5fjRZqkS5I7Z3-56" value="&lt;div style=&quot;font-size: 9.5px;&quot;&gt;&lt;span style=&quot;text-align: left; background-color: initial;&quot;&gt;Lorem ipsum dolor sit amet, consectetur adipiscing elit, sed do eiusmod&amp;nbsp;&lt;/span&gt;&lt;span style=&quot;text-align: left; background-color: initial;&quot;&gt;tempor incididunt ut labore et dolore magna aliqua. Ut enim ad minim&amp;nbsp;&lt;/span&gt;&lt;span style=&quot;text-align: left; background-color: initial;&quot;&gt;veniam, quis nostrud exercitation ullamco laboris nisi ut aliquip ex ea&amp;nbsp;&lt;/span&gt;&lt;span style=&quot;text-align: left; background-color: initial;&quot;&gt;commodo consequat. Duis aute irure.&lt;/span&gt;&lt;br&gt;&lt;/div&gt;" style="text;strokeColor=none;align=center;fillColor=none;verticalAlign=middle;rounded=0;fontSize=10;whiteSpace=wrap;html=1;fontColor=#FFFFFF;" vertex="1" parent="qlyuqYt5fjRZqkS5I7Z3-1">
          <mxGeometry x="180" y="1010" width="100" height="190" as="geometry" />
        </mxCell>
        <mxCell id="qlyuqYt5fjRZqkS5I7Z3-58" style="edgeStyle=none;curved=1;rounded=0;orthogonalLoop=1;jettySize=auto;html=1;exitX=0.5;exitY=1;exitDx=0;exitDy=0;fontSize=12;startSize=8;endSize=8;" edge="1" parent="qlyuqYt5fjRZqkS5I7Z3-1" source="qlyuqYt5fjRZqkS5I7Z3-59">
          <mxGeometry relative="1" as="geometry">
            <mxPoint x="405.2857142857142" y="1180.2857142857142" as="targetPoint" />
          </mxGeometry>
        </mxCell>
        <mxCell id="qlyuqYt5fjRZqkS5I7Z3-59" value="" style="rounded=0;whiteSpace=wrap;html=1;fillColor=#000000;strokeColor=#FFFFFF;" vertex="1" parent="qlyuqYt5fjRZqkS5I7Z3-1">
          <mxGeometry x="330" y="1010" width="290" height="190" as="geometry" />
        </mxCell>
        <mxCell id="qlyuqYt5fjRZqkS5I7Z3-60" value="" style="shape=mxgraph.sysml.x;strokeColor=#FFFFFF;" vertex="1" parent="qlyuqYt5fjRZqkS5I7Z3-1">
          <mxGeometry x="330" y="1010" width="290" height="190" as="geometry" />
        </mxCell>
        <mxCell id="qlyuqYt5fjRZqkS5I7Z3-61" value="&lt;font style=&quot;font-size: 18px;&quot; color=&quot;#ffffff&quot;&gt;Kid&#39;s Items&lt;/font&gt;" style="text;strokeColor=none;align=center;fillColor=none;html=1;verticalAlign=middle;whiteSpace=wrap;rounded=0;fontSize=16;" vertex="1" parent="qlyuqYt5fjRZqkS5I7Z3-1">
          <mxGeometry x="430" y="1020" width="90" height="20" as="geometry" />
        </mxCell>
        <mxCell id="qlyuqYt5fjRZqkS5I7Z3-62" value="" style="rounded=0;whiteSpace=wrap;html=1;fillColor=#000000;strokeColor=#FFFFFF;" vertex="1" parent="qlyuqYt5fjRZqkS5I7Z3-1">
          <mxGeometry x="170" y="1220" width="120" height="190" as="geometry" />
        </mxCell>
        <mxCell id="qlyuqYt5fjRZqkS5I7Z3-63" value="&lt;font style=&quot;font-size: 15px;&quot; color=&quot;#ffffff&quot;&gt;Item&lt;/font&gt;" style="text;strokeColor=none;align=center;fillColor=none;html=1;verticalAlign=middle;whiteSpace=wrap;rounded=0;fontSize=16;" vertex="1" parent="qlyuqYt5fjRZqkS5I7Z3-1">
          <mxGeometry x="200" y="1220" width="60" height="20" as="geometry" />
        </mxCell>
        <mxCell id="qlyuqYt5fjRZqkS5I7Z3-64" value="&lt;div style=&quot;font-size: 9.5px;&quot;&gt;&lt;span style=&quot;text-align: left; background-color: initial;&quot;&gt;Lorem ipsum dolor sit amet, consectetur adipiscing elit, sed do eiusmod&amp;nbsp;&lt;/span&gt;&lt;span style=&quot;text-align: left; background-color: initial;&quot;&gt;tempor incididunt ut labore et dolore magna aliqua. Ut enim ad minim&amp;nbsp;&lt;/span&gt;&lt;span style=&quot;text-align: left; background-color: initial;&quot;&gt;veniam, quis nostrud exercitation ullamco laboris nisi ut aliquip ex ea&amp;nbsp;&lt;/span&gt;&lt;span style=&quot;text-align: left; background-color: initial;&quot;&gt;commodo consequat. Duis aute irure.&lt;/span&gt;&lt;br&gt;&lt;/div&gt;" style="text;strokeColor=none;align=center;fillColor=none;verticalAlign=middle;rounded=0;fontSize=10;whiteSpace=wrap;html=1;fontColor=#FFFFFF;" vertex="1" parent="qlyuqYt5fjRZqkS5I7Z3-1">
          <mxGeometry x="180" y="1220" width="100" height="190" as="geometry" />
        </mxCell>
        <mxCell id="qlyuqYt5fjRZqkS5I7Z3-65" value="" style="rounded=0;whiteSpace=wrap;html=1;fillColor=#000000;strokeColor=#FFFFFF;" vertex="1" parent="qlyuqYt5fjRZqkS5I7Z3-1">
          <mxGeometry x="330" y="1220" width="120" height="190" as="geometry" />
        </mxCell>
        <mxCell id="qlyuqYt5fjRZqkS5I7Z3-66" value="&lt;font style=&quot;font-size: 15px;&quot; color=&quot;#ffffff&quot;&gt;Item&lt;/font&gt;" style="text;strokeColor=none;align=center;fillColor=none;html=1;verticalAlign=middle;whiteSpace=wrap;rounded=0;fontSize=16;" vertex="1" parent="qlyuqYt5fjRZqkS5I7Z3-1">
          <mxGeometry x="360" y="1220" width="60" height="20" as="geometry" />
        </mxCell>
        <mxCell id="qlyuqYt5fjRZqkS5I7Z3-67" value="&lt;div style=&quot;font-size: 9.5px;&quot;&gt;&lt;span style=&quot;text-align: left; background-color: initial;&quot;&gt;Lorem ipsum dolor sit amet, consectetur adipiscing elit, sed do eiusmod&amp;nbsp;&lt;/span&gt;&lt;span style=&quot;text-align: left; background-color: initial;&quot;&gt;tempor incididunt ut labore et dolore magna aliqua. Ut enim ad minim&amp;nbsp;&lt;/span&gt;&lt;span style=&quot;text-align: left; background-color: initial;&quot;&gt;veniam, quis nostrud exercitation ullamco laboris nisi ut aliquip ex ea&amp;nbsp;&lt;/span&gt;&lt;span style=&quot;text-align: left; background-color: initial;&quot;&gt;commodo consequat. Duis aute irure.&lt;/span&gt;&lt;br&gt;&lt;/div&gt;" style="text;strokeColor=none;align=center;fillColor=none;verticalAlign=middle;rounded=0;fontSize=10;whiteSpace=wrap;html=1;fontColor=#FFFFFF;" vertex="1" parent="qlyuqYt5fjRZqkS5I7Z3-1">
          <mxGeometry x="340" y="1220" width="100" height="190" as="geometry" />
        </mxCell>
        <mxCell id="qlyuqYt5fjRZqkS5I7Z3-68" value="" style="rounded=0;whiteSpace=wrap;html=1;fillColor=#000000;strokeColor=#FFFFFF;" vertex="1" parent="qlyuqYt5fjRZqkS5I7Z3-1">
          <mxGeometry x="490" y="1220" width="120" height="190" as="geometry" />
        </mxCell>
        <mxCell id="qlyuqYt5fjRZqkS5I7Z3-69" value="&lt;font style=&quot;font-size: 15px;&quot; color=&quot;#ffffff&quot;&gt;Item&lt;/font&gt;" style="text;strokeColor=none;align=center;fillColor=none;html=1;verticalAlign=middle;whiteSpace=wrap;rounded=0;fontSize=16;" vertex="1" parent="qlyuqYt5fjRZqkS5I7Z3-1">
          <mxGeometry x="520" y="1220" width="60" height="20" as="geometry" />
        </mxCell>
        <mxCell id="qlyuqYt5fjRZqkS5I7Z3-70" value="&lt;div style=&quot;font-size: 9.5px;&quot;&gt;&lt;span style=&quot;text-align: left; background-color: initial;&quot;&gt;Lorem ipsum dolor sit amet, consectetur adipiscing elit, sed do eiusmod&amp;nbsp;&lt;/span&gt;&lt;span style=&quot;text-align: left; background-color: initial;&quot;&gt;tempor incididunt ut labore et dolore magna aliqua. Ut enim ad minim&amp;nbsp;&lt;/span&gt;&lt;span style=&quot;text-align: left; background-color: initial;&quot;&gt;veniam, quis nostrud exercitation ullamco laboris nisi ut aliquip ex ea&amp;nbsp;&lt;/span&gt;&lt;span style=&quot;text-align: left; background-color: initial;&quot;&gt;commodo consequat. Duis aute irure.&lt;/span&gt;&lt;br&gt;&lt;/div&gt;" style="text;strokeColor=none;align=center;fillColor=none;verticalAlign=middle;rounded=0;fontSize=10;whiteSpace=wrap;html=1;fontColor=#FFFFFF;" vertex="1" parent="qlyuqYt5fjRZqkS5I7Z3-1">
          <mxGeometry x="500" y="1220" width="100" height="190" as="geometry" />
        </mxCell>
      </root>
    </mxGraphModel>
  </diagram>
</mxfile>
